<svg width="81" height="25" viewBox="0 0 81 25" fill="none" xmlns="http://www.w3.org/2000/svg">
<rect width="81" height="25" rx="6" fill="#092B43"/>
<path d="M26.05 17V10H29C29.7467 10 30.4033 10.1467 30.97 10.44C31.5433 10.7333 31.9867 11.1433 32.3 11.67C32.62 12.1967 32.78 12.8067 32.78 13.5C32.78 14.1933 32.62 14.8033 32.3 15.33C31.9867 15.8567 31.5433 16.2667 30.97 16.56C30.4033 16.8533 29.7467 17 29 17H26.05ZM27.05 16.13H28.94C29.52 16.13 30.02 16.02 30.44 15.8C30.8667 15.58 31.1967 15.2733 31.43 14.88C31.6633 14.48 31.78 14.02 31.78 13.5C31.78 12.9733 31.6633 12.5133 31.43 12.12C31.1967 11.7267 30.8667 11.42 30.44 11.2C30.02 10.98 29.52 10.87 28.94 10.87H27.05V16.13ZM34.1717 17V11.7H35.1317V17H34.1717ZM34.6517 10.68C34.4651 10.68 34.3084 10.62 34.1817 10.5C34.0617 10.38 34.0017 10.2333 34.0017 10.06C34.0017 9.88 34.0617 9.73 34.1817 9.61C34.3084 9.49 34.4651 9.43 34.6517 9.43C34.8384 9.43 34.9917 9.49 35.1117 9.61C35.2384 9.72333 35.3017 9.86667 35.3017 10.04C35.3017 10.22 35.2417 10.3733 35.1217 10.5C35.0017 10.62 34.8451 10.68 34.6517 10.68ZM36.9647 17V11.7H37.8847V13.14L37.7947 12.78C37.9414 12.4133 38.188 12.1333 38.5347 11.94C38.8814 11.7467 39.308 11.65 39.8147 11.65V12.58C39.7747 12.5733 39.7347 12.57 39.6947 12.57C39.6614 12.57 39.628 12.57 39.5947 12.57C39.0814 12.57 38.6747 12.7233 38.3747 13.03C38.0747 13.3367 37.9247 13.78 37.9247 14.36V17H36.9647ZM43.3091 17.06C42.7424 17.06 42.2424 16.9433 41.8091 16.71C41.3824 16.4767 41.0491 16.1567 40.8091 15.75C40.5757 15.3433 40.4591 14.8767 40.4591 14.35C40.4591 13.8233 40.5724 13.3567 40.7991 12.95C41.0324 12.5433 41.3491 12.2267 41.7491 12C42.1557 11.7667 42.6124 11.65 43.1191 11.65C43.6324 11.65 44.0857 11.7633 44.4791 11.99C44.8724 12.2167 45.1791 12.5367 45.3991 12.95C45.6257 13.3567 45.7391 13.8333 45.7391 14.38C45.7391 14.42 45.7357 14.4667 45.7291 14.52C45.7291 14.5733 45.7257 14.6233 45.7191 14.67H41.2091V13.98H45.2191L44.8291 14.22C44.8357 13.88 44.7657 13.5767 44.6191 13.31C44.4724 13.0433 44.2691 12.8367 44.0091 12.69C43.7557 12.5367 43.4591 12.46 43.1191 12.46C42.7857 12.46 42.4891 12.5367 42.2291 12.69C41.9691 12.8367 41.7657 13.0467 41.6191 13.32C41.4724 13.5867 41.3991 13.8933 41.3991 14.24V14.4C41.3991 14.7533 41.4791 15.07 41.6391 15.35C41.8057 15.6233 42.0357 15.8367 42.3291 15.99C42.6224 16.1433 42.9591 16.22 43.3391 16.22C43.6524 16.22 43.9357 16.1667 44.1891 16.06C44.4491 15.9533 44.6757 15.7933 44.8691 15.58L45.3991 16.2C45.1591 16.48 44.8591 16.6933 44.4991 16.84C44.1457 16.9867 43.7491 17.06 43.3091 17.06ZM49.3821 17.06C48.8421 17.06 48.3588 16.9433 47.9321 16.71C47.5121 16.4767 47.1821 16.1567 46.9421 15.75C46.7021 15.3433 46.5821 14.8767 46.5821 14.35C46.5821 13.8233 46.7021 13.3567 46.9421 12.95C47.1821 12.5433 47.5121 12.2267 47.9321 12C48.3588 11.7667 48.8421 11.65 49.3821 11.65C49.8621 11.65 50.2888 11.7467 50.6621 11.94C51.0421 12.1267 51.3354 12.4067 51.5421 12.78L50.8121 13.25C50.6388 12.99 50.4254 12.8 50.1721 12.68C49.9254 12.5533 49.6588 12.49 49.3721 12.49C49.0254 12.49 48.7154 12.5667 48.4421 12.72C48.1688 12.8733 47.9521 13.09 47.7921 13.37C47.6321 13.6433 47.5521 13.97 47.5521 14.35C47.5521 14.73 47.6321 15.06 47.7921 15.34C47.9521 15.62 48.1688 15.8367 48.4421 15.99C48.7154 16.1433 49.0254 16.22 49.3721 16.22C49.6588 16.22 49.9254 16.16 50.1721 16.04C50.4254 15.9133 50.6388 15.72 50.8121 15.46L51.5421 15.92C51.3354 16.2867 51.0421 16.57 50.6621 16.77C50.2888 16.9633 49.8621 17.06 49.3821 17.06ZM54.6734 17.06C54.14 17.06 53.7267 16.9167 53.4334 16.63C53.14 16.3433 52.9934 15.9333 52.9934 15.4V10.54H53.9534V15.36C53.9534 15.6467 54.0234 15.8667 54.1634 16.02C54.31 16.1733 54.5167 16.25 54.7834 16.25C55.0834 16.25 55.3334 16.1667 55.5334 16L55.8334 16.69C55.6867 16.8167 55.51 16.91 55.3034 16.97C55.1034 17.03 54.8934 17.06 54.6734 17.06ZM52.0934 12.49V11.7H55.4734V12.49H52.0934ZM56.994 17V11.7H57.954V17H56.994ZM57.474 10.68C57.2873 10.68 57.1307 10.62 57.004 10.5C56.884 10.38 56.824 10.2333 56.824 10.06C56.824 9.88 56.884 9.73 57.004 9.61C57.1307 9.49 57.2873 9.43 57.474 9.43C57.6607 9.43 57.814 9.49 57.934 9.61C58.0607 9.72333 58.124 9.86667 58.124 10.04C58.124 10.22 58.064 10.3733 57.944 10.5C57.824 10.62 57.6673 10.68 57.474 10.68ZM62.057 17.06C61.5236 17.06 61.0503 16.9433 60.637 16.71C60.2236 16.4767 59.897 16.1567 59.657 15.75C59.417 15.3367 59.297 14.87 59.297 14.35C59.297 13.8233 59.417 13.3567 59.657 12.95C59.897 12.5433 60.2236 12.2267 60.637 12C61.0503 11.7667 61.5236 11.65 62.057 11.65C62.5836 11.65 63.0536 11.7667 63.467 12C63.887 12.2267 64.2136 12.5433 64.447 12.95C64.687 13.35 64.807 13.8167 64.807 14.35C64.807 14.8767 64.687 15.3433 64.447 15.75C64.2136 16.1567 63.887 16.4767 63.467 16.71C63.0536 16.9433 62.5836 17.06 62.057 17.06ZM62.057 16.22C62.397 16.22 62.7003 16.1433 62.967 15.99C63.2403 15.8367 63.4536 15.62 63.607 15.34C63.7603 15.0533 63.837 14.7233 63.837 14.35C63.837 13.97 63.7603 13.6433 63.607 13.37C63.4536 13.09 63.2403 12.8733 62.967 12.72C62.7003 12.5667 62.397 12.49 62.057 12.49C61.717 12.49 61.4136 12.5667 61.147 12.72C60.8803 12.8733 60.667 13.09 60.507 13.37C60.347 13.6433 60.267 13.97 60.267 14.35C60.267 14.7233 60.347 15.0533 60.507 15.34C60.667 15.62 60.8803 15.8367 61.147 15.99C61.4136 16.1433 61.717 16.22 62.057 16.22ZM68.9646 11.65C69.3979 11.65 69.7779 11.7333 70.1046 11.9C70.4379 12.0667 70.6979 12.32 70.8846 12.66C71.0713 13 71.1646 13.43 71.1646 13.95V17H70.2046V14.06C70.2046 13.5467 70.0779 13.16 69.8246 12.9C69.5779 12.64 69.2279 12.51 68.7746 12.51C68.4346 12.51 68.1379 12.5767 67.8846 12.71C67.6313 12.8433 67.4346 13.04 67.2946 13.3C67.1613 13.56 67.0946 13.8833 67.0946 14.27V17H66.1346V11.7H67.0546V13.13L66.9046 12.75C67.0779 12.4033 67.3446 12.1333 67.7046 11.94C68.0646 11.7467 68.4846 11.65 68.9646 11.65Z" fill="white"/>
<g clip-path="url(#clip0_209_295)">
<path d="M12.4999 12C12.3673 12 12.2402 12.0527 12.1464 12.1465C12.0526 12.2402 11.9999 12.3674 11.9999 12.5V14.5H12.9999V13H14.4999V14.25L16.2499 12.5L14.4999 10.75V12H12.4999ZM14.3534 7.6965L19.3034 12.6465C19.3972 12.7403 19.4498 12.8674 19.4498 13C19.4498 13.1326 19.3972 13.2597 19.3034 13.3535L14.3534 18.3035C14.2597 18.3972 14.1325 18.4499 13.9999 18.4499C13.8674 18.4499 13.7402 18.3972 13.6464 18.3035L8.69644 13.3535C8.60271 13.2597 8.55005 13.1326 8.55005 13C8.55005 12.8674 8.60271 12.7403 8.69644 12.6465L13.6464 7.6965C13.7402 7.60277 13.8674 7.55011 13.9999 7.55011C14.1325 7.55011 14.2597 7.60277 14.3534 7.6965Z" fill="white"/>
</g>
<defs>
<clipPath id="clip0_209_295">
<rect width="12" height="12" fill="white" transform="translate(8 7)"/>
</clipPath>
</defs>
</svg>
